<?xml version="1.0" encoding="utf-8"?>
<svg fill="#ffffff" id="vector" xmlns="http://www.w3.org/2000/svg" width="100" height="109" viewBox="0 0 100 109">
  <path d="M26.26,55.61C26.2,56 26.14,56.41 26.08,56.87C24.98,54.22 25.32,50.54 26.88,47.48C27.03,47.19 27.15,46.89 27.29,46.6C27.32,46.5 27.34,46.41 27.36,46.32L27.15,46.44C25.45,47.6 24.21,49.19 23.16,50.93C20.05,56.13 19.58,61.79 20.23,67.66C20.28,68.06 20.33,68.47 20.37,68.88C20.37,68.92 20.32,68.96 20.26,69.05C18.85,66.89 18.01,64.55 17.72,62.04C17.06,56.34 17.86,50.87 20.17,45.6C21.41,42.79 23.02,40.25 25.24,38.12C25.81,37.58 26.48,37.13 27.21,36.72C25.64,39.18 24.15,41.64 23.76,44.63C24.4,43.89 25.03,43.14 25.67,42.4C28.41,39.3 31.8,37.35 35.89,36.62C36.5,36.51 36.84,36.64 37.11,37.22C38.01,39.08 39.34,40.3 41.58,40.22C41.82,40.22 42.17,40.59 42.29,40.86C42.56,41.47 42.73,42.14 42.99,42.94C43.74,41.4 44.44,39.99 45.16,38.52C44.36,38.58 44,38.1 43.7,37.44C42.75,35.35 41.09,34.27 38.8,34.21C37.2,34.17 35.6,34.2 34,34.2C34.94,32.96 36.12,31.87 37.69,31.25C37.88,31.16 38.06,31.07 38.25,30.98L38.29,30.97C38.38,30.92 38.47,30.88 38.57,30.84C38.62,30.82 38.67,30.8 38.73,30.78C38.84,30.73 38.95,30.69 39.07,30.64C39.1,30.6 39.14,30.58 39.19,30.6C39.26,30.57 39.33,30.54 39.39,30.51C39.45,30.49 39.5,30.47 39.56,30.46C39.53,30.35 39.52,30.17 39.47,30.15C39.21,30.06 38.92,30.06 38.68,29.96C38.26,29.76 38.39,29.59 38.75,29.46C38.8,29.48 38.84,29.5 38.89,29.52L39.25,29.79C39.74,29.92 40.25,29.99 40.71,30.18C44.77,31.81 47.45,34.79 49.06,38.81C49.33,39.49 49.62,40.18 49.95,40.99C50.13,40.53 50.25,40.23 50.36,39.92C51.65,36.45 53.46,33.33 56.73,31.35C58.81,30.08 61.04,29.13 63.53,28.97C63.61,29.4 63.69,29.82 63.78,30.26C63.89,30.24 63.79,30.26 63.69,30.29H60.44C62.55,31.33 64.65,32.35 65.99,34.41C65.66,34.41 65.34,34.4 65.01,34.4C64.85,34.34 64.68,34.28 64.52,34.22C63.59,34.22 62.66,34.24 61.74,34.21C59.38,34.12 57.55,35 56.47,37.15C56.09,37.91 55.73,38.61 54.72,38.51C55.45,39.96 56.13,41.33 56.84,42.75C57.1,42.16 57.36,41.63 57.57,41.08C57.76,40.59 58.01,40.31 58.62,40.26C60.57,40.09 62.02,39.2 62.65,37.23C62.83,36.66 63.24,36.44 63.86,36.6C64.67,36.8 65.5,36.96 66.33,37.14C66.39,37.16 66.45,37.17 66.51,37.19C66.55,37.21 66.59,37.23 66.63,37.25C70.58,38.83 73.87,41.24 76.22,44.81C76.46,43.97 75.99,42.51 75.1,40.79C74.43,39.49 73.57,38.3 72.67,36.88C73.12,37.1 73.47,37.2 73.72,37.41C76.2,39.43 78.09,41.92 79.45,44.8C81.74,49.61 82.59,54.72 82.42,60.02C82.3,63.39 81.43,66.53 79.38,69.41C79.58,67.67 79.87,66.05 79.93,64.43C79.98,62.77 79.95,61.08 79.7,59.44C79.45,57.77 79.04,56.11 78.45,54.54C77.86,52.99 77.04,51.52 76.16,50.11C75.28,48.71 74.16,47.49 72.74,46.53C74.5,49.75 75.34,53.05 73.98,56.85C73.88,56.46 73.83,56.28 73.79,56.1C73.75,55.88 73.73,55.66 73.71,55.45C73.9,52.82 72.74,50.66 71.34,48.59C71.26,48.47 71.08,48.42 70.94,48.34C70.89,48.23 70.84,48.12 70.78,48.02C70.72,47.9 70.69,47.74 70.6,47.66C69.19,46.47 67.8,45.25 66.34,44.13C65.76,43.68 65.02,43.44 64.23,43.05C64.68,44.09 65.19,44.94 65.42,45.86C65.65,46.83 65.62,47.86 65.7,48.86C65.59,49.35 65.47,49.84 65.35,50.33C64.73,49.35 64.22,48.3 63.47,47.43C62.91,46.78 62.13,46.23 61.06,46.03C61.22,46.61 61.41,47.04 61.45,47.49C61.54,48.51 61.96,49.59 61.07,50.49C60.37,49.32 59.6,48.22 58.39,47.53C59.49,50.37 59.61,53.28 59.23,56.22C59.12,57.07 58.6,57.87 58.27,58.7C58.22,58.76 58.17,58.81 58.12,58.87L58.12,58.87C57.82,58.99 57.52,59.12 57.22,59.24C55.56,59.95 53.09,59.29 52.07,57.85C52.29,57.71 52.51,57.57 52.72,57.43C52.84,57.38 52.95,57.32 53.06,57.26C53.16,57.19 53.26,57.13 53.36,57.06C55.77,55.2 55.42,51.74 52.69,50.44C52.37,50.36 52.06,50.28 51.74,50.19C50.46,49.95 49.19,49.95 47.93,50.32C47.66,50.37 47.39,50.42 47.13,50.47C46.73,50.71 46.3,50.9 45.97,51.2C45.64,51.5 45.31,51.87 45.15,52.28C44.46,54.09 45.17,56.14 46.79,57.19C47,57.32 47.22,57.43 47.43,57.55C47.51,57.57 47.59,57.58 47.67,57.6C47.77,57.62 47.87,57.65 47.97,57.67C47.32,58.53 46.48,59.21 45.43,59.32C44.35,59.44 43.23,59.27 42.13,59.22C42.05,59.14 41.97,59.07 41.89,59C41.84,58.95 41.78,58.89 41.73,58.84C41.7,58.82 41.67,58.79 41.65,58.76C41.6,58.69 41.56,58.62 41.5,58.56C41.21,57.58 40.74,56.61 40.64,55.61C40.37,52.84 40.63,50.1 41.77,47.51C41.82,47.39 41.86,47.27 41.92,47.1C41.08,47.49 40.39,48.23 39.06,50.15C38.89,49.83 38.59,49.52 38.59,49.2C38.56,48.13 38.64,47.06 38.68,45.96C38.58,46.01 38.39,46.09 38.21,46.18C36.51,47.04 35.42,48.43 34.76,50.19C34.59,49.59 34.41,48.98 34.24,48.38C34.24,46.6 34.57,44.89 35.5,43.3C33.57,44.01 31.86,44.99 30.51,46.52C30.18,46.83 29.82,47.12 29.52,47.46C27.49,49.79 26.25,52.45 26.26,55.6V55.61Z" id="path_1" style=""/>
  <path d="M27.07,33.24C25.86,33.32 24.66,33.4 23.45,33.48C25.13,32.42 26.78,31.48 28.31,30.38C29.34,29.64 30.17,28.62 31.17,27.82C32.23,26.97 33.37,26.22 34.7,25.27C33.62,25.38 32.75,25.46 31.74,25.56C34.78,21.3 38.83,19.29 44.17,19.37C42.98,18.27 41.94,17.34 40.93,16.37C38.1,13.64 35.29,10.89 32.46,8.17C32.25,7.97 32.16,7.35 31.62,7.76C29.63,11.27 28.92,14.96 29.96,18.93C30.05,19.26 29.97,19.7 29.81,20.02C29.22,21.21 28.56,22.36 27.92,23.52C27.77,23.78 27.55,24 27.37,24.23C24.64,15.39 26.6,6.98 30.86,0.77C31.46,1.39 32.01,2.01 32.61,2.59C35.37,5.28 38.14,7.95 40.91,10.63C41.54,11.24 42.18,11.84 42.85,12.4C43.03,12.55 43.4,12.64 43.62,12.56C47.78,11.09 51.93,11.15 56.09,12.48C56.57,12.63 56.87,12.63 57.24,12.27C60.99,8.56 64.75,4.87 68.52,1.17C68.63,1.06 68.76,0.97 68.95,0.8C69.36,1.39 69.78,1.92 70.13,2.49C72.4,6.15 73.69,10.1 73.74,14.42C73.77,17.27 73.81,20.12 73.01,22.89C72.89,23.33 72.71,23.75 72.56,24.19C72.1,22.47 71.14,21.02 70.06,19.64C69.94,19.48 69.98,19.15 70.05,18.92C70.86,16.15 70.75,13.43 69.63,10.75C69.26,9.79 68.91,8.81 68.52,7.86C68.43,7.66 68.24,7.17 67.96,7.77C63.98,11.59 60.01,15.41 55.93,19.33C60.99,19.5 65.07,21.44 68.15,25.61C67,25.46 66.05,25.34 65.1,25.23C65.08,25.3 65.06,25.38 65.03,25.46C65.62,25.81 66.26,26.11 66.8,26.53C68.53,27.86 70.17,29.32 71.95,30.58C73.32,31.54 74.85,32.28 76.31,33.12C76.42,33.18 76.54,33.24 76.84,33.41H75.36C74.67,33.34 73.93,33.39 73.29,33.16C71.71,32.6 70.18,31.91 68.63,31.28C67.4,30.46 66.17,29.64 64.94,28.82C64.91,28.77 64.88,28.73 64.84,28.68C64.74,28.61 64.63,28.55 64.53,28.48C62.69,27.36 60.67,26.92 58.5,27.06C58.48,26.96 58.46,26.85 58.44,26.75C59.43,26.29 60.42,25.83 61.41,25.37C61.46,25.27 61.51,25.18 61.56,25.08C60.56,25.16 59.57,25.23 58.57,25.3C58.48,25.32 58.39,25.34 58.3,25.36C58.01,25.32 57.7,25.21 57.45,25.28C55.14,25.88 53.16,27.01 51.67,28.91C51.42,29.23 51.13,29.5 50.86,29.79C50.92,29.03 50.97,28.27 51.05,27.52C51.4,24.1 50.84,20.77 50.09,17.45C50.06,17.3 49.98,17.16 49.91,16.96C48.92,20.35 48.54,23.72 48.77,27.16V29.31C47.98,28.57 47.3,27.77 46.47,27.19C45.61,26.59 44.64,26.12 43.66,25.73C42.14,25.13 40.54,24.81 38.89,25.17C38.75,25.22 38.62,25.27 38.43,25.34C39.46,25.83 40.41,26.28 41.36,26.73C41.33,26.82 41.31,26.9 41.28,26.99C40.94,26.99 40.6,26.98 40.26,26.99C38.16,27.07 36.17,27.54 34.45,28.82C33.91,29.26 33.36,29.7 32.82,30.14C30.98,31.33 29.21,32.64 27.07,33.26V33.24Z" id="path_2" style=""/>
  <path d="M20.52,15.56C17.61,18.27 14.97,21.22 12.72,24.51C8.89,30.13 6.45,36.31 5.43,43.04C5.15,44.85 5.04,46.68 4.83,48.69C6,48.31 7.01,47.98 7.97,47.67C8.95,35.77 13.8,25.85 22.63,17.82C23,19.16 23,19.17 22.17,20.04C18.8,23.62 15.69,27.39 13.57,31.86C11.34,36.55 9.91,41.45 9.58,46.65C9.56,46.92 9.58,47.19 9.58,47.53C11.58,48.03 13.58,48.53 15.85,49.09C15.39,49.28 15.16,49.39 14.93,49.46C13.32,49.89 11.72,50.36 10.09,50.74C9.55,50.86 9.46,51.06 9.49,51.56C9.69,56.28 10.76,60.81 12.57,65.16C14.96,70.92 18.56,75.85 23.25,79.91C25.4,81.77 27.97,83.15 30.35,84.74C30.46,84.82 30.57,84.9 30.69,84.97C30.84,85.54 31,86.11 31.16,86.68C29.43,85.7 27.62,84.83 25.98,83.72C21.3,80.56 17.56,76.46 14.48,71.74C10.45,65.56 8.51,58.72 8.05,51.42C8.02,50.97 7.89,50.73 7.44,50.62C6.63,50.4 5.83,50.12 4.95,49.84C4.98,53.06 5.23,56.15 5.92,59.21C6.88,63.5 8.3,67.63 10.51,71.44C15.15,79.43 21.31,85.85 29.78,89.83C30.37,90.1 30.95,90.39 31.54,90.67C32.26,92.29 32.98,93.91 33.72,95.52C33.93,95.98 34.2,96.41 34.44,96.85C27.23,94.64 20.9,90.89 15.38,85.79C11.76,82.45 8.82,78.53 6.43,74.22C3.66,69.21 1.68,63.9 0.73,58.23C-0.72,49.67 -0.01,41.3 3,33.12C6.53,23.53 12.48,15.77 20.51,9.53C21.33,8.89 22.25,8.36 23.12,7.78C23.09,8.05 23.13,8.35 23.03,8.59C22.69,9.41 22.2,10.19 21.94,11.04C21.51,12.42 21.21,13.85 20.86,15.26C20.82,15.3 20.78,15.33 20.73,15.37C20.66,15.43 20.59,15.5 20.52,15.56V15.56Z" id="path_3" style=""/>
  <path d="M68.66,90.46C70.35,89.57 72.08,88.74 73.72,87.77C78.87,84.71 83.14,80.7 86.65,75.85C91.43,69.23 94.1,61.86 94.78,53.75C94.86,52.77 94.89,51.78 94.94,50.8C94.95,50.53 94.94,50.26 94.94,49.88C93.97,50.18 93.06,50.42 92.18,50.75C92,50.82 91.83,51.2 91.82,51.45C91.58,57.09 90.28,62.48 87.84,67.57C85.89,71.67 83.3,75.32 80.08,78.56C77,81.65 73.55,84.19 69.67,86.16C69.25,86.38 68.77,86.51 68.31,86.67C68.42,86.18 68.54,85.68 68.65,85.18C68.67,85.15 68.7,85.13 68.74,85.13C68.81,85.09 68.88,85.04 68.96,85C73.34,82.85 77.11,79.89 80.34,76.27C84.99,71.06 88.18,65.09 89.5,58.2C89.91,56.06 90.12,53.88 90.44,51.72C90.53,51.12 90.27,50.92 89.73,50.79C88.26,50.44 86.82,50.03 85.37,49.62C84.97,49.51 84.59,49.32 84.2,49.16C84.21,49.09 84.21,49.02 84.22,48.94C86.29,48.51 88.36,48.07 90.48,47.63C90.42,45.22 90.09,42.91 89.53,40.62C88.5,36.48 87.12,32.45 84.77,28.9C82.94,26.13 80.69,23.64 78.61,21.03C78.34,20.69 78.04,20.36 77.7,20.09C76.96,19.5 76.86,18.75 77.09,17.75C78.23,18.87 79.38,19.86 80.38,20.99C82.85,23.77 85.16,26.67 86.96,29.97C89.41,34.47 90.87,39.28 91.59,44.33C91.73,45.27 91.75,46.23 91.87,47.18C91.9,47.41 92.05,47.75 92.22,47.82C93.08,48.14 93.97,48.39 94.9,48.68C94.99,44.88 94.38,41.28 93.39,37.73C91.35,30.45 87.78,24.05 82.46,18.66C81.37,17.55 80.24,16.48 79.12,15.4C78.57,13.62 78.08,11.81 77.45,10.06C77.17,9.3 76.62,8.64 76.2,7.94C76.36,7.92 76.58,7.84 76.69,7.91C80.26,10.09 83.36,12.83 86.24,15.84C90.27,20.04 93.5,24.79 95.78,30.16C98.84,37.36 100.4,44.85 99.91,52.7C99.4,60.68 97.1,68.13 93.07,75C88.31,83.09 81.75,89.35 73.29,93.49C70.72,94.74 68.02,95.73 65.38,96.84C65.21,96.83 65.03,96.82 64.85,96.81H64.85C65.24,96.16 65.63,95.51 66.02,94.86C66.9,93.39 67.78,91.92 68.66,90.46Z" id="path_4" style=""/>
  <path d="M49.93,108.83C48.51,106.94 47.07,105.25 45.88,103.4C43.48,99.65 41.14,95.85 38.94,91.98C37.3,89.09 36.18,85.99 36.04,82.59C35.74,75.72 40.49,69.54 47.24,68.33C55.75,66.8 62.92,72.95 63.74,80.28C64.14,83.87 63.36,87.18 61.85,90.37C58.94,96.53 55.09,102.11 51.01,107.53C50.72,107.92 50.39,108.28 49.93,108.83ZM41.72,76.29L41.7,76.31C41.63,76.41 41.56,76.5 41.5,76.6C40.36,78.27 39.98,80.15 39.91,82.15C41.04,82.05 42.08,81.99 43.1,81.86C43.35,81.83 43.74,81.58 43.78,81.38C44.06,79.99 44.69,78.82 45.65,77.81C46.64,77.33 47.64,76.86 48.63,76.37C48.83,76.27 49.13,76.13 49.16,75.96C49.38,74.69 49.54,73.4 49.74,72.03C47.04,72.04 44.85,73 42.99,74.8L42.35,75.46C42.25,75.57 42.16,75.68 42.07,75.79L41.85,76.12C41.81,76.17 41.77,76.23 41.73,76.29L41.72,76.29ZM49.31,85.48C49.52,85.41 49.73,85.33 49.94,85.25C50.13,85.26 50.32,85.26 50.52,85.26C50.53,85.78 50.5,86.3 50.59,86.81C50.63,86.99 50.97,87.29 51.13,87.26C52.78,87.01 54.88,84.91 54.7,83.2H52.71C52.71,82.81 52.71,82.41 52.72,82.02C53.26,82 53.81,82.04 54.35,81.95C54.51,81.93 54.77,81.53 54.72,81.38C54.58,80.89 54.37,80.39 54.09,79.96C53.29,78.73 52.18,77.93 50.59,77.57V79.79C50.2,79.77 49.8,79.76 49.4,79.74V77.58C47.56,77.79 46.42,78.77 45.67,80.21C44.83,81.85 44.99,82.06 46.8,82.06C46.94,82.06 47.07,82.03 47.21,82.02C47.23,82.37 47.24,82.72 47.26,83.08C46.75,83.08 46.23,83.08 45.71,83.09C45.27,83.11 45.05,83.31 45.19,83.78C45.58,85.06 46.22,86.15 47.44,86.76C47.98,87.03 48.61,87.13 49.2,87.3C49.23,86.69 49.27,86.09 49.31,85.48H49.31ZM59.88,82.21C60.29,76.18 54.38,71.59 50.18,72.13C50.35,73.31 50.55,74.49 50.68,75.67C50.73,76.11 50.89,76.26 51.31,76.34C52.6,76.56 53.73,77.17 54.48,78.23C55.13,79.15 55.55,80.23 56.09,81.23C56.24,81.49 56.43,81.89 56.65,81.92C57.72,82.07 58.8,82.12 59.88,82.21H59.88ZM59.89,82.98C58.9,83.05 57.99,83.16 57.07,83.16C56.48,83.17 56.23,83.36 56.06,83.95C55.41,86.16 54,87.76 51.76,88.41C50.88,88.66 50.63,89.12 50.61,89.9C50.6,90.2 50.58,90.5 50.57,90.8C50.55,92.89 50.55,92.9 52.6,92.41C57.3,91.3 59.77,87.59 59.89,82.98ZM39.93,83.22C40.05,88.07 44.26,93.04 49.28,92.57C49.28,91.49 49.26,90.41 49.29,89.32C49.31,88.8 49.09,88.64 48.61,88.52C46.15,87.9 44.59,86.3 43.84,83.91C43.71,83.47 43.52,83.24 43.1,83.23C42.06,83.21 41.03,83.22 39.93,83.22Z" id="path_5" style=""/>
  <path d="M49.85,9.29C49.38,7.58 48.96,6.03 48.49,4.32C47.11,4.49 45.71,4.64 44.32,4.84C43.37,4.97 42.41,5.1 41.51,5.38C40.76,5.61 40.28,5.4 39.77,4.9C38.78,3.92 37.73,3 36.55,1.91C45.57,-0.71 54.42,-0.57 63.5,1.96C62.35,3.03 61.3,3.96 60.31,4.95C59.7,5.57 59.14,5.58 58.29,5.39C56.19,4.93 54.03,4.71 51.9,4.37C51.41,4.29 51.32,4.56 51.22,4.94C50.87,6.21 50.5,7.47 50.13,8.73C50.08,8.88 49.99,9.02 49.85,9.29Z" id="path_6" style=""/>
  <path d="M27.37,24.23C27.55,23.99 27.77,23.78 27.92,23.52C28.57,22.36 29.22,21.2 29.81,20.02C29.97,19.7 30.05,19.26 29.96,18.92C28.92,14.96 29.63,11.27 31.62,7.76C31.52,10.36 31.59,12.94 32.99,15.23C33.65,16.31 34.52,17.25 35.34,18.31C31.65,19.75 29.55,22.72 28.22,26.53C27.94,25.76 27.65,24.99 27.37,24.23V24.23Z" id="path_7" style=""/>
  <path d="M69.63,10.74C70.75,13.42 70.86,16.14 70.05,18.92C69.98,19.14 69.94,19.47 70.06,19.63C71.14,21.02 72.1,22.46 72.56,24.18C72.3,24.97 72.05,25.76 71.8,26.54C70.42,22.72 68.14,19.88 64.26,18.29C66.52,16.72 67.6,14.54 68.22,12.07C68.25,11.95 68.28,11.84 68.31,11.73C68.32,11.62 68.34,11.51 68.35,11.4C68.51,11.09 68.66,10.78 68.83,10.42C69.09,10.53 69.36,10.64 69.63,10.74L69.63,10.74Z" id="path_8" style=""/>
  <path d="M75.75,70.37C74.96,72.91 73.64,75.16 72.03,77.24C70.7,78.95 69.18,80.48 67.21,81.68C67.08,80.53 66.94,79.47 66.83,78.4C66.82,78.27 66.92,78.09 67.03,77.99C69.26,75.76 70.79,73.04 72.34,70.33C72.46,70.12 72.61,69.93 72.75,69.73C72.99,70.54 73.64,70.56 74.31,70.51C74.79,70.47 75.27,70.41 75.75,70.36L75.75,70.37Z" id="path_9" style=""/>
  <path d="M66.93,64.39C67.93,61.77 68.8,59.12 68.32,56.24C68.38,56.21 68.44,56.17 68.51,56.14C69.01,56.8 69.55,57.43 70.01,58.11C71.14,59.79 71.89,61.62 72.1,63.64C72.13,63.87 72.15,64.17 72.03,64.33C70.68,66.22 69.37,68.15 67.33,69.4C67.31,69.21 67.26,69.02 67.26,68.83C67.27,68.18 67.3,67.54 67.33,66.89C67.17,66.86 66.99,66.78 66.88,66.83C66.69,66.93 66.56,67.12 66.4,67.27L66.19,67.16C66.24,66.81 66.29,66.46 66.33,66.11C66.53,65.53 66.73,64.96 66.93,64.39L66.93,64.39Z" id="path_10" style=""/>
  <path d="M32.97,69.34C32.9,69.45 32.84,69.56 32.77,69.67C30.73,68.41 29.32,66.55 28.08,64.55C27.97,64.38 27.9,64.13 27.93,63.94C28.35,61.02 29.25,58.32 31.6,56C31.6,57.42 31.36,58.69 31.65,59.83C32.15,61.84 32.97,63.77 33.66,65.74C33.32,66.03 32.99,66.31 32.66,66.6C32.76,67.52 32.86,68.43 32.96,69.35L32.97,69.34Z" id="path_11" style=""/>
  <path d="M27.57,70.36C28.38,71.69 29.14,73.04 30.01,74.33C30.87,75.59 31.85,76.76 32.74,78C32.9,78.22 33.02,78.56 32.99,78.82C32.91,79.77 32.76,80.7 32.61,81.88C31.43,80.81 30.3,79.91 29.32,78.87C27.05,76.45 25.43,73.63 24.27,70.53C24.25,70.49 24.28,70.43 24.28,70.37C25.38,70.95 26.47,70.48 27.57,70.36V70.36Z" id="path_12" style=""/>
  <path d="M32.97,69.34C32.87,68.43 32.76,67.51 32.66,66.6C32.88,66.87 33.11,67.13 33.31,67.41C33.76,68.04 34.28,68.05 34.64,67.41C34.79,67.39 34.94,67.37 35.09,67.34C34.96,66.87 34.84,66.4 34.71,65.93C34.69,65.71 34.66,65.49 34.64,65.28C34.69,64.78 34.66,64.25 34.82,63.79C34.98,63.33 35.25,62.71 35.63,62.56C36.17,62.35 36.3,63 36.45,63.43C36.48,63.52 36.59,63.58 36.66,63.65C36.69,63.76 36.72,63.86 36.76,63.97C36.8,64.08 36.85,64.2 36.89,64.31L36.91,64.35C36.91,64.38 36.92,64.41 36.94,64.43C37.62,65.71 38.29,66.98 38.95,68.22C37.78,69.49 36.58,70.78 35.3,72.16C34.57,71.28 33.77,70.31 32.96,69.35L32.97,69.34Z" id="path_14" style=""/>
  <path d="M67.33,66.89C67.31,67.54 67.28,68.18 67.27,68.83C67.26,69.02 67.31,69.21 67.34,69.4C67.11,69.44 66.88,69.48 66.65,69.52C66,70.35 65.3,71.23 64.66,72.05C63.4,70.78 62.25,69.62 61.13,68.43C61.04,68.33 61.21,67.98 61.26,67.75C61.4,67.56 61.55,67.36 61.7,67.17C62.08,66.48 62.46,65.79 62.84,65.1C63.11,65.05 63.38,65 63.65,64.95C63.64,64.87 63.63,64.78 63.62,64.7C63.43,64.68 63.24,64.65 63.04,64.62C63.1,64.46 63.16,64.29 63.21,64.13C63.38,64.19 63.59,64.21 63.72,64.32C64.27,64.79 64.8,65.29 65.34,65.77C65.3,66.15 65.26,66.52 65.22,66.9C65.05,67.18 64.88,67.47 64.71,67.75C64.75,67.79 64.79,67.82 64.82,67.86C65,67.76 65.17,67.67 65.35,67.58C65.45,67.61 65.57,67.61 65.65,67.67C66.68,68.4 66.8,68.36 67.17,67.16C67.21,67.06 67.28,66.98 67.34,66.89H67.33Z" id="path_15" style=""/>
  <path d="M61.06,50.49C61.96,49.59 61.53,48.51 61.45,47.49C61.41,47.05 61.22,46.61 61.06,46.03C62.13,46.23 62.91,46.78 63.47,47.43C64.21,48.3 64.73,49.36 65.35,50.33C65.29,50.5 65.24,50.67 65.19,50.83C65,51.16 64.83,51.5 64.63,51.82C63.99,52.84 63.34,53.86 62.69,54.88C62.33,55.13 61.96,55.39 61.6,55.64L61.61,55.65C61.64,54.83 61.77,53.99 61.68,53.17C61.58,52.26 61.28,51.38 61.07,50.49H61.06Z" id="path_16" style=""/>
  <path d="M34.76,50.2C35.41,48.43 36.51,47.05 38.21,46.18C38.39,46.09 38.58,46.01 38.67,45.97C38.64,47.06 38.56,48.14 38.58,49.21C38.59,49.53 38.89,49.84 39.05,50.15C38.29,51.79 38.07,53.51 38.3,55.3C38.31,55.4 38.25,55.5 38.23,55.6L38.24,55.58C38.02,55.47 37.81,55.36 37.59,55.25C36.93,54.32 36.27,53.39 35.61,52.46C35.33,51.71 35.04,50.95 34.75,50.2H34.76Z" id="path_17" style=""/>
  <path d="M65.7,48.86C65.62,47.86 65.65,46.83 65.42,45.87C65.19,44.94 64.68,44.09 64.22,43.05C65.02,43.45 65.76,43.68 66.34,44.13C67.8,45.25 69.19,46.47 70.6,47.66C70.69,47.74 70.72,47.9 70.78,48.02C70.84,48.13 70.89,48.23 70.94,48.34C70.76,49.03 70.59,49.72 70.41,50.41C69.35,49.72 68.3,49.04 67.24,48.35C67.21,48.41 67.18,48.46 67.15,48.51C67.14,48.62 67.13,48.74 67.12,48.85C66.65,48.85 66.17,48.86 65.71,48.86H65.7Z" id="path_18" style=""/>
  <path d="M34.43,96.86C34.19,96.42 33.92,95.98 33.71,95.53C32.97,93.92 32.25,92.29 31.53,90.68C32.54,91.07 33.56,91.46 34.57,91.87C34.71,91.92 34.84,92.05 34.91,92.18C35.92,94.04 36.92,95.91 38,97.93C36.76,97.56 35.59,97.21 34.43,96.86V96.86Z" id="path_19" style=""/>
  <path d="M47.93,50.32C49.19,49.96 50.46,49.95 51.74,50.19C51.83,51.3 51.92,52.4 52,53.51C50.32,53.5 48.64,53.5 46.95,53.49C46.87,52.31 47.36,51.3 47.93,50.33V50.32Z" id="path_20" style=""/>
  <path d="M73.25,68.9C73.88,67.52 74.6,66.16 75.13,64.75C75.59,63.53 75.85,62.24 76.17,61.06C76.76,62.13 76.78,65.26 76.17,68.57C76.1,68.83 76.03,69.11 75.96,69.38C75.06,69.22 74.15,69.06 73.25,68.9V68.9Z" id="path_21" style=""/>
  <path d="M30.51,46.53C31.86,44.99 33.57,44.01 35.5,43.31C34.57,44.9 34.24,46.6 34.24,48.39C33.72,48.37 33.2,48.36 32.68,48.34C32.35,48.46 32.01,48.58 31.68,48.71C31.41,48.27 31.23,47.71 30.85,47.43C30.47,47.14 30.39,46.92 30.51,46.53V46.53Z" id="path_22" style=""/>
  <path d="M30.51,46.53C30.39,46.92 30.47,47.14 30.85,47.42C31.23,47.71 31.41,48.27 31.68,48.71C29.02,50.33 27.3,52.71 26.26,55.61C26.25,52.45 27.49,49.8 29.52,47.47C29.82,47.13 30.18,46.84 30.51,46.53Z" id="path_23" style=""/>
  <path d="M23.86,61.85C23.88,61.95 23.9,62.05 23.92,62.16C24.08,62.7 24.24,63.25 24.4,63.8C24.41,63.85 24.43,63.91 24.44,63.96C24.49,64.07 24.54,64.18 24.58,64.29C25.09,65.43 25.59,66.56 26.1,67.7C26.16,67.82 26.22,67.94 26.28,68.05L26.27,68.04C26.35,68.17 26.42,68.29 26.5,68.41C26.52,68.46 26.55,68.51 26.58,68.56C26.61,68.62 26.64,68.67 26.67,68.73C26.69,68.78 26.72,68.83 26.74,68.89C26.67,69.85 26.58,69.9 25.68,69.56C25.48,69.48 25.27,69.4 25.06,69.4C24.42,69.37 24.07,69.05 23.9,68.45C23.31,66.37 23.33,64.26 23.63,62.14C23.65,62.03 23.78,61.94 23.86,61.85H23.86Z" id="path_24" style=""/>
  <path d="M68.66,90.46C67.78,91.93 66.9,93.39 66.02,94.86C65.31,94.74 64.59,94.63 63.87,94.52C64.26,93.68 64.64,92.84 65.05,92.02C65.12,91.87 65.31,91.75 65.48,91.69C66.54,91.27 67.6,90.87 68.66,90.46Z" id="path_25" style=""/>
  <path d="M52.72,57.43C52.51,57.57 52.29,57.71 52.07,57.85C53.09,59.29 55.56,59.95 57.22,59.24C57.52,59.11 57.82,58.99 58.12,58.87C57.23,60.39 55.47,61.15 53.69,60.78C52.11,60.45 51.1,59.38 50.92,57.77C51.52,57.66 52.12,57.55 52.73,57.44L52.72,57.43Z" id="path_26" style=""/>
  <path d="M46.55,63.13C47.54,62.76 48.49,62.37 49.47,62.05C49.79,61.94 50.2,61.94 50.52,62.05C51.47,62.34 52.39,62.72 53.32,63.07C51.93,64.51 47.69,64.42 46.55,63.13V63.13Z" id="path_27" style=""/>
  <path d="M42.13,59.22C43.23,59.27 44.35,59.44 45.43,59.32C46.48,59.21 47.32,58.54 47.96,57.67C48.31,57.7 48.65,57.73 48.99,57.76C48.93,59.27 48.01,60.25 46.31,60.71C44.72,61.14 42.96,60.51 42.13,59.22Z" id="path_28" style=""/>
  <path d="M21.56,30.97C21.07,31.71 20.72,32.25 20.25,32.95C18.8,31.67 17.38,30.4 15.95,29.14C16.02,29.03 16.09,28.93 16.15,28.82C17.92,29.52 19.69,30.23 21.56,30.97V30.97Z" id="path_29" style=""/>
  <path d="M65.34,65.77C64.8,65.28 64.27,64.79 63.71,64.32C63.59,64.21 63.38,64.19 63.21,64.13C63.42,62.6 63.62,61.07 63.82,59.57C65.22,61.33 65.72,63.43 65.33,65.77H65.34Z" id="path_30" style=""/>
  <path d="M20.86,15.26C21.21,13.85 21.51,12.42 21.94,11.03C22.2,10.18 22.69,9.41 23.03,8.58C23.13,8.34 23.09,8.05 23.11,7.77C23.32,7.62 23.52,7.48 23.59,7.42C23.32,9.46 23.07,11.52 22.77,13.58C22.74,13.81 22.5,14.03 22.3,14.19C21.83,14.57 21.34,14.9 20.85,15.25L20.86,15.26Z" id="path_31" style=""/>
  <path d="M79.73,32.87C79.25,32.21 78.88,31.68 78.37,30.96C80.17,30.28 81.9,29.64 83.63,28.99C83.7,29.11 83.76,29.23 83.84,29.34C82.49,30.5 81.15,31.65 79.73,32.87L79.73,32.87Z" id="path_32" style=""/>
  <path d="M70.41,50.4C70.59,49.72 70.76,49.03 70.94,48.34C71.08,48.42 71.26,48.47 71.34,48.59C72.74,50.66 73.9,52.82 73.71,55.45C73.05,53.47 71.78,51.91 70.41,50.4Z" id="path_33" style=""/>
  <path d="M32.82,30.13C33.36,29.69 33.91,29.25 34.45,28.81C35.88,29.02 37.31,29.24 38.74,29.46C38.39,29.58 38.25,29.76 38.68,29.95C38.92,30.06 39.21,30.06 39.46,30.14C39.52,30.16 39.53,30.35 39.56,30.45C38.27,29.88 36.97,30.24 35.67,30.39C35.51,30.41 35.35,30.45 35.19,30.48C35.11,30.51 35.03,30.54 34.95,30.57C34.83,30.6 34.7,30.64 34.57,30.67C34.29,30.62 34,30.59 33.73,30.5C33.42,30.41 33.12,30.26 32.82,30.13H32.82Z" id="path_34" style=""/>
  <path d="M76.2,7.93C76.62,8.64 77.17,9.3 77.45,10.06C78.08,11.81 78.57,13.61 79.12,15.39C79.07,15.37 79.02,15.36 78.97,15.33C77.65,14.6 77.08,13.55 77.03,11.98C76.99,10.63 76.49,9.28 76.2,7.93Z" id="path_35" style=""/>
  <path d="M63.87,94.52C64.59,94.63 65.31,94.74 66.02,94.86C65.63,95.51 65.24,96.16 64.85,96.82C64.79,96.83 64.73,96.84 64.84,96.82C64.74,96.88 64.79,96.84 64.85,96.81C65.03,96.82 65.21,96.83 65.38,96.84C64.28,97.19 63.17,97.54 62.07,97.89L61.92,97.7C62.57,96.64 63.22,95.58 63.87,94.52H63.87Z" id="path_36" style=""/>
  <path d="M64.94,28.81C66.17,29.63 67.4,30.45 68.63,31.27C68.38,31.2 68.13,31.13 67.81,31.05V31.81C67.48,31.67 67.15,31.53 66.82,31.39C66.75,31.36 66.69,31.32 66.62,31.28C66.52,31.24 66.41,31.2 66.31,31.16C66.25,31.14 66.2,31.13 66.14,31.11C65.33,30.84 64.51,30.56 63.69,30.28C63.79,30.26 63.89,30.24 63.78,30.26C63.69,29.82 63.61,29.39 63.52,28.97C64,28.92 64.47,28.86 64.94,28.81L64.94,28.81Z" id="path_37" style=""/>
  <path d="M32.68,48.34C33.2,48.35 33.72,48.37 34.24,48.38C34.41,48.99 34.59,49.59 34.76,50.19C35.04,50.95 35.33,51.71 35.62,52.46C35.06,52.25 34.5,52.03 33.93,51.82C33.1,50.81 32.8,49.6 32.68,48.34Z" id="path_38" style=""/>
  <path d="M23.86,61.85C23.78,61.94 23.64,62.03 23.63,62.14C23.32,64.26 23.3,66.37 23.9,68.45C24.07,69.05 24.42,69.38 25.05,69.4C25.26,69.4 25.48,69.48 25.68,69.56C26.58,69.89 26.66,69.84 26.74,68.89C27.01,69.38 27.29,69.87 27.57,70.36C26.47,70.48 25.37,70.95 24.28,70.37C23.09,67.32 23,64.19 23.76,61C23.79,61.28 23.83,61.56 23.86,61.85V61.85Z" id="path_39" style=""/>
  <path d="M38.71,36.11C40.53,35.88 41.55,36.59 42.08,38.46C40.43,38.97 39.11,38.05 38.71,36.11Z" id="path_40" style=""/>
  <path d="M32.82,30.13C33.12,30.26 33.42,30.4 33.73,30.5C34,30.59 34.29,30.62 34.58,30.67C32.4,31.5 30.22,32.34 28.03,33.15C27.74,33.26 27.39,33.22 27.07,33.25C29.21,32.63 30.99,31.32 32.82,30.13H32.82Z" id="path_41" style=""/>
  <path d="M36.66,63.65C36.59,63.57 36.48,63.51 36.45,63.43C36.3,62.99 36.17,62.34 35.63,62.55C35.25,62.7 34.98,63.32 34.82,63.79C34.66,64.25 34.69,64.78 34.64,65.27C34.23,63.12 34.9,61.25 36.11,59.46C36.3,60.9 36.48,62.27 36.66,63.65H36.66Z" id="path_42" style=""/>
  <path d="M62.69,54.88C63.34,53.86 63.99,52.84 64.63,51.81C64.83,51.5 65,51.16 65.19,50.83C65.58,50.94 65.98,51.06 66.38,51.17C65.58,52.83 64.36,54.08 62.69,54.88Z" id="path_43" style=""/>
  <path d="M52,53.51C51.91,52.4 51.82,51.3 51.73,50.19C52.05,50.28 52.37,50.36 52.69,50.45C52.69,50.7 52.62,50.98 52.7,51.2C52.79,51.47 53.07,51.69 53.15,51.97C53.28,52.42 53.32,52.91 53.4,53.38C52.93,53.43 52.47,53.47 52,53.51V53.51Z" id="path_44" style=""/>
  <path d="M20.89,26.55C21.74,27.25 22.34,27.72 22.89,28.25C22.95,28.31 22.76,28.74 22.59,28.91C22.47,29.05 22.14,29.13 21.99,29.06C21.48,28.8 20.99,28.49 20.54,28.14C20.39,28.02 20.29,27.67 20.34,27.48C20.44,27.16 20.68,26.88 20.89,26.55H20.89Z" id="path_45" style=""/>
  <path d="M76.89,28.27C77.37,27.87 77.84,27.54 78.23,27.14C78.73,26.62 79.11,26.57 79.47,27.25C79.55,27.39 79.66,27.5 79.84,27.73C79.16,28.16 78.55,28.59 77.89,28.95C77.43,29.2 77.41,29.16 76.89,28.27Z" id="path_46" style=""/>
  <path d="M67.81,31.81V31.05C68.13,31.14 68.38,31.2 68.63,31.27C70.18,31.91 71.71,32.59 73.29,33.15C73.93,33.38 74.67,33.33 75.36,33.4C72.71,33.5 70.17,33.07 67.81,31.81H67.81Z" id="path_47" style=""/>
  <path d="M19.25,34.26C19.07,34.65 18.93,34.94 18.74,35.33C17.94,34.95 17.15,34.57 16.37,34.2C16.71,32.92 16.89,32.83 17.88,33.42C18.32,33.69 18.75,33.96 19.25,34.26H19.25Z" id="path_48" style=""/>
  <path d="M14.97,37.54C15.08,37.18 15.15,36.92 15.22,36.67C15.35,36.2 15.6,36.13 16.01,36.38C16.28,36.55 16.57,36.72 16.88,36.81C17.75,37.07 17.82,37.56 17.29,38.36C16.57,38.1 15.82,37.84 14.98,37.54H14.97Z" id="path_49" style=""/>
  <path d="M85.04,37.46C84.18,37.76 83.45,38.03 82.62,38.32C82.46,37.96 82.32,37.62 82.12,37.17C82.91,36.83 83.66,36.5 84.49,36.14C84.68,36.6 84.84,36.99 85.04,37.46V37.46Z" id="path_50" style=""/>
  <path d="M81.22,35.22C81.06,34.86 80.93,34.57 80.75,34.2C81.38,33.8 81.98,33.38 82.61,33.04C82.75,32.97 83.1,33.12 83.23,33.27C83.41,33.49 83.47,33.8 83.6,34.12C82.82,34.48 82.07,34.83 81.22,35.22Z" id="path_51" style=""/>
  <path d="M15.99,43.7C15.94,44.13 15.9,44.44 15.85,44.91C14.99,44.79 14.15,44.67 13.21,44.54C13.31,44.08 13.4,43.7 13.5,43.21C14.34,43.38 15.13,43.53 15.99,43.7V43.7Z" id="path_52" style=""/>
  <path d="M83.49,41.54C83.44,41.07 83.41,40.73 83.37,40.36C84.16,40.12 84.91,39.89 85.75,39.64C85.88,40.08 86,40.5 86.15,41C85.25,41.19 84.43,41.35 83.49,41.54Z" id="path_53" style=""/>
  <path d="M84.13,44.89C84.09,44.43 84.06,44.11 84.03,43.7C84.84,43.51 85.62,43.32 86.51,43.11C86.56,43.6 86.6,43.96 86.65,44.44C85.83,44.59 85.04,44.73 84.13,44.89Z" id="path_54" style=""/>
  <path d="M73.25,68.9C74.15,69.06 75.06,69.21 75.96,69.37C75.98,69.43 76,69.48 76.01,69.54C75.98,69.66 75.95,69.77 75.91,69.89C75.89,69.94 75.88,70 75.86,70.05V70.04C75.82,70.14 75.79,70.24 75.75,70.34V70.37C75.27,70.42 74.79,70.48 74.3,70.51C73.63,70.57 72.98,70.55 72.74,69.73C72.78,69.66 72.83,69.59 72.87,69.52L72.9,69.45C73.02,69.27 73.13,69.08 73.24,68.9H73.25Z" id="path_55" style=""/>
  <path d="M13.77,40.99C13.97,40.5 14.11,40.16 14.26,39.78C14.8,39.91 15.26,40.05 15.74,40.13C16.54,40.27 16.84,40.65 16.38,41.56C15.58,41.39 14.74,41.21 13.77,41V40.99Z" id="path_56" style=""/>
  <path d="M33.93,51.82C34.49,52.03 35.05,52.25 35.62,52.46C36.28,53.39 36.93,54.32 37.59,55.25C36.02,54.48 34.8,53.34 33.94,51.82L33.93,51.82Z" id="path_57" style=""/>
  <path d="M31.15,86.68C30.99,86.11 30.84,85.55 30.68,84.98C31.32,85.26 32.08,85.41 32.57,85.85C32.96,86.21 33,86.94 33.29,87.74C32.42,87.31 31.78,86.99 31.15,86.68Z" id="path_58" style=""/>
  <path d="M66.38,51.17C65.99,51.06 65.59,50.94 65.19,50.83C65.24,50.66 65.29,50.5 65.35,50.33C65.47,49.84 65.58,49.35 65.7,48.86C66.17,48.85 66.64,48.85 67.11,48.84C66.87,49.62 66.63,50.4 66.38,51.17Z" id="path_59" style=""/>
  <path d="M15.02,54.53C14.84,55.24 14.67,55.6 14.06,55.6C13.54,55.6 13.19,55.41 13.18,54.89C13.16,54.35 13.4,53.86 14.01,53.93C14.36,53.98 14.68,54.32 15.02,54.53Z" id="path_60" style=""/>
  <path d="M68.65,85.18C68.54,85.68 68.42,86.18 68.31,86.67C67.83,86.94 67.34,87.2 66.82,87.48C66.68,86.09 67,85.71 68.65,85.18Z" id="path_61" style=""/>
  <path d="M52.76,54.93C53.01,55.15 53.47,55.38 53.46,55.58C53.43,56.25 52.92,56.44 52.3,56.41C51.86,56.39 51.34,56.47 51.39,55.8C51.45,55 52.08,55.1 52.76,54.93H52.76Z" id="path_62" style=""/>
  <path d="M86.24,53.79C86.46,54.12 86.87,54.47 86.84,54.79C86.82,55.07 86.34,55.47 86.01,55.53C85.49,55.63 85.09,55.24 85.2,54.7C85.27,54.36 85.62,54.08 85.84,53.78C85.97,53.78 86.1,53.78 86.24,53.79Z" id="path_63" style=""/>
  <path d="M69.63,10.74C69.36,10.64 69.09,10.53 68.83,10.42C68.66,10.78 68.5,11.09 68.35,11.41C68.36,10.37 68.39,9.34 68.37,8.31C68.36,8.12 68.1,7.94 67.96,7.76C68.24,7.16 68.43,7.65 68.52,7.85C68.91,8.81 69.26,9.78 69.63,10.74H69.63Z" id="path_64" style=""/>
  <path d="M85.63,59.49C85.4,59.19 84.97,58.85 85,58.58C85.04,58.28 85.51,57.84 85.8,57.82C86.07,57.81 86.54,58.26 86.59,58.57C86.63,58.84 86.22,59.18 86.01,59.49C85.88,59.49 85.75,59.49 85.63,59.49V59.49Z" id="path_65" style=""/>
  <path d="M47.54,56.25C47.35,56.24 47.08,56.3 46.99,56.2C46.77,55.95 46.6,55.63 46.49,55.31C46.47,55.25 46.89,55.03 47.12,54.94C47.26,54.88 47.45,54.91 47.6,54.94C48.06,55.01 48.52,55.19 48.39,55.74C48.32,56 47.93,56.18 47.68,56.41C47.63,56.35 47.58,56.3 47.54,56.25Z" id="path_66" style=""/>
  <path d="M34.64,67.4C34.28,68.05 33.75,68.04 33.31,67.4C33.11,67.12 32.88,66.86 32.66,66.6C32.99,66.31 33.33,66.02 33.66,65.73C33.76,65.85 33.86,65.98 33.96,66.11C34.19,66.54 34.41,66.97 34.64,67.4L34.64,67.4Z" id="path_67" style=""/>
  <path d="M14.47,57.63C14.68,57.91 15.02,58.17 15.08,58.48C15.17,58.97 14.85,59.4 14.33,59.3C14.02,59.25 13.57,58.87 13.54,58.6C13.51,58.3 13.89,57.96 14.09,57.63C14.22,57.63 14.35,57.63 14.47,57.62V57.63Z" id="path_68" style=""/>
  <path d="M23.65,25.74C23.06,25.24 22.61,24.86 22.08,24.4C22.44,24.09 22.78,23.79 23.18,23.43C23.33,24.16 23.47,24.86 23.64,25.74H23.65Z" id="path_69" style=""/>
  <path d="M47.93,50.32C47.36,51.3 46.87,52.31 46.95,53.49C46.53,53.67 46.35,53.49 46.46,53.09C46.63,52.46 46.87,51.85 47.05,51.22C47.12,50.99 47.1,50.72 47.12,50.48C47.39,50.42 47.66,50.37 47.93,50.32Z" id="path_70" style=""/>
  <path d="M76.35,25.48C76.51,24.81 76.66,24.16 76.85,23.36C77.2,23.78 77.46,24.11 77.77,24.49C77.33,24.89 76.92,25.25 76.51,25.62C76.46,25.57 76.41,25.52 76.35,25.48H76.35Z" id="path_71" style=""/>
  <path d="M34.64,67.4C34.41,66.97 34.19,66.54 33.96,66.11C34.14,66.19 34.33,66.28 34.57,66.39C34.62,66.23 34.66,66.08 34.71,65.92C34.84,66.4 34.96,66.87 35.09,67.34C34.94,67.36 34.79,67.38 34.64,67.4H34.64Z" id="path_72" style=""/>
  <path d="M66.93,64.39C66.73,64.96 66.54,65.54 66.34,66.11C66.24,66.17 66.13,66.23 66.03,66.29C66,66.26 65.97,66.23 65.93,66.19C66.26,65.59 66.6,64.99 66.93,64.39Z" id="path_73" style=""/>
  <path d="M65.34,67.58C65.17,67.67 64.99,67.76 64.82,67.86C64.78,67.82 64.74,67.79 64.7,67.75C64.87,67.47 65.05,67.18 65.22,66.9C65.31,66.9 65.4,66.91 65.49,66.91C65.52,66.93 65.55,66.95 65.58,66.97L65.34,67.58L65.34,67.58Z" id="path_74" style=""/>
  <path d="M63.04,64.62C63.23,64.65 63.43,64.67 63.62,64.7C63.63,64.78 63.64,64.86 63.65,64.94C63.38,65 63.11,65.05 62.84,65.1C62.91,64.94 62.97,64.78 63.04,64.62Z" id="path_75" style=""/>
  <path d="M65.5,66.91C65.64,66.67 65.79,66.43 65.93,66.19C65.96,66.22 66,66.25 66.03,66.28C65.88,66.51 65.73,66.73 65.58,66.96C65.55,66.94 65.52,66.92 65.5,66.91V66.91Z" id="path_77" style=""/>
  <path d="M66.63,37.25C66.59,37.23 66.55,37.21 66.51,37.19C66.55,37.2 66.6,37.22 66.63,37.25Z" id="path_84"/>
  <path d="M27.14,46.44L27.36,46.32C27.34,46.41 27.31,46.5 27.29,46.6C27.24,46.54 27.19,46.49 27.14,46.44Z" id="path_94"/>
  <path d="M61.41,25.36C60.76,25.31 60.1,25.25 59.45,25.22C59.16,25.21 58.86,25.26 58.57,25.29C59.57,25.22 60.56,25.14 61.56,25.07C61.51,25.17 61.46,25.26 61.41,25.36V25.36Z" id="path_97" style=""/>
  <path d="M65.58,66.96C65.73,66.74 65.88,66.51 66.03,66.29C66.13,66.23 66.24,66.17 66.34,66.11C66.29,66.46 66.24,66.81 66.2,67.17L66.41,67.27C66.56,67.12 66.7,66.93 66.88,66.84C66.99,66.78 67.18,66.87 67.33,66.89C67.28,66.98 67.2,67.06 67.17,67.16C66.8,68.36 66.68,68.4 65.65,67.67C65.56,67.61 65.44,67.61 65.34,67.58C65.42,67.37 65.5,67.17 65.58,66.97V66.96Z" id="path_109" style=""/>
  <path d="M61.21,35.96C60.75,37.91 59.7,38.81 57.77,38.53C57.9,37.76 58.27,37.03 58.93,36.65C59.57,36.28 60.37,36.2 61.21,35.96Z" id="path_110" style=""/>
  <path d="M 44.2 82.27 C 44.2 77.797 49.042 75.002 52.915 77.238 C 54.713 78.276 55.82 80.194 55.82 82.27 C 55.82 86.743 50.978 89.538 47.105 87.302 C 45.307 86.264 44.2 84.346 44.2 82.27" fill-opacity="0" id="path_113" style="stroke: #ffffff;" stroke-width="1.29132"/>
  <path d="M 38.64 82.6 L 61.36 82.6" fill-opacity="0" stroke-width="1.29132" id="path_114" style="stroke: #ffffff;"/>
  <path d="M 50 70.91 L 50 87.247 L 50 93.64" id="path_115" stroke-width="1.29132" fill-opacity="0" style="paint-order: fill; stroke: #ffffff;"/>
</svg>